<svg width="900" height="214" viewBox="0 0 900 214" fill="none" xmlns="http://www.w3.org/2000/svg">
<path d="M277.772 161.5H280.577V197.47H302.742V200H277.772V161.5ZM319.801 200.22C317.088 200.22 314.631 199.597 312.431 198.35C310.268 197.103 308.563 195.38 307.316 193.18C306.07 190.943 305.446 188.432 305.446 185.645C305.446 182.858 306.07 180.365 307.316 178.165C308.563 175.928 310.268 174.187 312.431 172.94C314.631 171.693 317.088 171.07 319.801 171.07C322.515 171.07 324.953 171.693 327.116 172.94C329.316 174.187 331.04 175.928 332.286 178.165C333.533 180.365 334.156 182.858 334.156 185.645C334.156 188.432 333.533 190.943 332.286 193.18C331.04 195.38 329.316 197.103 327.116 198.35C324.953 199.597 322.515 200.22 319.801 200.22ZM319.801 197.745C322.001 197.745 323.963 197.232 325.686 196.205C327.446 195.178 328.821 193.748 329.811 191.915C330.838 190.082 331.351 187.992 331.351 185.645C331.351 183.298 330.838 181.208 329.811 179.375C328.821 177.542 327.446 176.112 325.686 175.085C323.963 174.058 322.001 173.545 319.801 173.545C317.601 173.545 315.621 174.058 313.861 175.085C312.138 176.112 310.763 177.542 309.736 179.375C308.746 181.208 308.251 183.298 308.251 185.645C308.251 187.992 308.746 190.082 309.736 191.915C310.763 193.748 312.138 195.178 313.861 196.205C315.621 197.232 317.601 197.745 319.801 197.745ZM364.927 171.29L351.947 200H349.142L336.217 171.29H339.132L350.572 196.975L362.122 171.29H364.927ZM381.904 197.745C383.774 197.745 385.498 197.415 387.074 196.755C388.688 196.058 390.026 195.05 391.089 193.73L392.684 195.545C391.438 197.085 389.879 198.258 388.009 199.065C386.139 199.835 384.086 200.22 381.849 200.22C378.989 200.22 376.423 199.597 374.149 198.35C371.913 197.103 370.153 195.38 368.869 193.18C367.623 190.98 366.999 188.468 366.999 185.645C366.999 182.822 367.586 180.31 368.759 178.11C369.969 175.91 371.638 174.187 373.764 172.94C375.891 171.693 378.293 171.07 380.969 171.07C383.463 171.07 385.699 171.657 387.679 172.83C389.696 173.967 391.291 175.562 392.464 177.615C393.674 179.632 394.334 181.905 394.444 184.435L370.189 189.165C370.886 191.805 372.279 193.895 374.369 195.435C376.459 196.975 378.971 197.745 381.904 197.745ZM380.969 173.49C378.806 173.49 376.863 174.003 375.139 175.03C373.416 176.02 372.078 177.432 371.124 179.265C370.171 181.062 369.694 183.115 369.694 185.425C369.694 185.828 369.731 186.397 369.804 187.13L391.694 182.84C391.438 181.117 390.833 179.54 389.879 178.11C388.926 176.68 387.679 175.562 386.139 174.755C384.599 173.912 382.876 173.49 380.969 173.49ZM424.338 200.22C422.028 200.22 419.828 199.872 417.738 199.175C415.648 198.478 414.016 197.598 412.843 196.535L414.108 194.335C415.281 195.325 416.784 196.15 418.618 196.81C420.488 197.47 422.431 197.8 424.448 197.8C427.344 197.8 429.471 197.323 430.828 196.37C432.221 195.417 432.918 194.097 432.918 192.41C432.918 191.2 432.533 190.247 431.763 189.55C431.029 188.853 430.113 188.34 429.013 188.01C427.913 187.68 426.391 187.332 424.448 186.965C422.174 186.562 420.341 186.122 418.948 185.645C417.554 185.168 416.363 184.398 415.373 183.335C414.383 182.272 413.888 180.805 413.888 178.935C413.888 176.662 414.823 174.792 416.693 173.325C418.599 171.822 421.294 171.07 424.778 171.07C426.611 171.07 428.426 171.327 430.223 171.84C432.019 172.353 433.486 173.032 434.623 173.875L433.358 176.075C432.184 175.232 430.846 174.59 429.343 174.15C427.839 173.71 426.299 173.49 424.723 173.49C422.046 173.49 420.029 173.985 418.673 174.975C417.316 175.965 416.638 177.267 416.638 178.88C416.638 180.163 417.023 181.172 417.793 181.905C418.563 182.602 419.498 183.133 420.598 183.5C421.734 183.83 423.311 184.197 425.328 184.6C427.564 185.003 429.361 185.443 430.718 185.92C432.111 186.36 433.284 187.093 434.238 188.12C435.191 189.147 435.668 190.558 435.668 192.355C435.668 194.738 434.678 196.645 432.698 198.075C430.718 199.505 427.931 200.22 424.338 200.22ZM454.727 200.22C451.941 200.22 449.447 199.597 447.247 198.35C445.047 197.103 443.324 195.38 442.077 193.18C440.831 190.943 440.207 188.432 440.207 185.645C440.207 182.822 440.831 180.31 442.077 178.11C443.324 175.873 445.047 174.15 447.247 172.94C449.447 171.693 451.941 171.07 454.727 171.07C457.037 171.07 459.127 171.528 460.997 172.445C462.904 173.325 464.444 174.627 465.617 176.35L463.582 177.835C462.556 176.405 461.272 175.342 459.732 174.645C458.229 173.912 456.561 173.545 454.727 173.545C452.491 173.545 450.474 174.058 448.677 175.085C446.917 176.075 445.524 177.487 444.497 179.32C443.507 181.153 443.012 183.262 443.012 185.645C443.012 188.028 443.507 190.137 444.497 191.97C445.524 193.803 446.917 195.233 448.677 196.26C450.474 197.25 452.491 197.745 454.727 197.745C456.561 197.745 458.229 197.397 459.732 196.7C461.272 195.967 462.556 194.885 463.582 193.455L465.617 194.94C464.444 196.663 462.904 197.983 460.997 198.9C459.127 199.78 457.037 200.22 454.727 200.22ZM473.85 171.29H476.6V200H473.85V171.29ZM475.225 164.305C474.602 164.305 474.07 164.103 473.63 163.7C473.19 163.26 472.97 162.728 472.97 162.105C472.97 161.482 473.19 160.95 473.63 160.51C474.07 160.07 474.602 159.85 475.225 159.85C475.848 159.85 476.38 160.07 476.82 160.51C477.26 160.913 477.48 161.427 477.48 162.05C477.48 162.673 477.26 163.205 476.82 163.645C476.38 164.085 475.848 164.305 475.225 164.305ZM499.961 197.745C501.831 197.745 503.554 197.415 505.131 196.755C506.744 196.058 508.083 195.05 509.146 193.73L510.741 195.545C509.494 197.085 507.936 198.258 506.066 199.065C504.196 199.835 502.143 200.22 499.906 200.22C497.046 200.22 494.479 199.597 492.206 198.35C489.969 197.103 488.209 195.38 486.926 193.18C485.679 190.98 485.056 188.468 485.056 185.645C485.056 182.822 485.643 180.31 486.816 178.11C488.026 175.91 489.694 174.187 491.821 172.94C493.948 171.693 496.349 171.07 499.026 171.07C501.519 171.07 503.756 171.657 505.736 172.83C507.753 173.967 509.348 175.562 510.521 177.615C511.731 179.632 512.391 181.905 512.501 184.435L488.246 189.165C488.943 191.805 490.336 193.895 492.426 195.435C494.516 196.975 497.028 197.745 499.961 197.745ZM499.026 173.49C496.863 173.49 494.919 174.003 493.196 175.03C491.473 176.02 490.134 177.432 489.181 179.265C488.228 181.062 487.751 183.115 487.751 185.425C487.751 185.828 487.788 186.397 487.861 187.13L509.751 182.84C509.494 181.117 508.889 179.54 507.936 178.11C506.983 176.68 505.736 175.562 504.196 174.755C502.656 173.912 500.933 173.49 499.026 173.49ZM535.033 171.07C538.627 171.07 541.468 172.115 543.558 174.205C545.648 176.295 546.693 179.302 546.693 183.225V200H543.943V183.445C543.943 180.218 543.118 177.762 541.468 176.075C539.855 174.388 537.582 173.545 534.648 173.545C531.275 173.545 528.617 174.553 526.673 176.57C524.73 178.587 523.758 181.3 523.758 184.71V200H521.008V171.29H523.648V177.505C524.638 175.488 526.105 173.912 528.048 172.775C530.028 171.638 532.357 171.07 535.033 171.07ZM569.454 200.22C566.667 200.22 564.174 199.597 561.974 198.35C559.774 197.103 558.05 195.38 556.804 193.18C555.557 190.943 554.934 188.432 554.934 185.645C554.934 182.822 555.557 180.31 556.804 178.11C558.05 175.873 559.774 174.15 561.974 172.94C564.174 171.693 566.667 171.07 569.454 171.07C571.764 171.07 573.854 171.528 575.724 172.445C577.63 173.325 579.17 174.627 580.344 176.35L578.309 177.835C577.282 176.405 575.999 175.342 574.459 174.645C572.955 173.912 571.287 173.545 569.454 173.545C567.217 173.545 565.2 174.058 563.404 175.085C561.644 176.075 560.25 177.487 559.224 179.32C558.234 181.153 557.739 183.262 557.739 185.645C557.739 188.028 558.234 190.137 559.224 191.97C560.25 193.803 561.644 195.233 563.404 196.26C565.2 197.25 567.217 197.745 569.454 197.745C571.287 197.745 572.955 197.397 574.459 196.7C575.999 195.967 577.282 194.885 578.309 193.455L580.344 194.94C579.17 196.663 577.63 197.983 575.724 198.9C573.854 199.78 571.764 200.22 569.454 200.22ZM599.863 197.745C601.733 197.745 603.457 197.415 605.033 196.755C606.647 196.058 607.985 195.05 609.048 193.73L610.643 195.545C609.397 197.085 607.838 198.258 605.968 199.065C604.098 199.835 602.045 200.22 599.808 200.22C596.948 200.22 594.382 199.597 592.108 198.35C589.872 197.103 588.112 195.38 586.828 193.18C585.582 190.98 584.958 188.468 584.958 185.645C584.958 182.822 585.545 180.31 586.718 178.11C587.928 175.91 589.597 174.187 591.723 172.94C593.85 171.693 596.252 171.07 598.928 171.07C601.422 171.07 603.658 171.657 605.638 172.83C607.655 173.967 609.25 175.562 610.423 177.615C611.633 179.632 612.293 181.905 612.403 184.435L588.148 189.165C588.845 191.805 590.238 193.895 592.328 195.435C594.418 196.975 596.93 197.745 599.863 197.745ZM598.928 173.49C596.765 173.49 594.822 174.003 593.098 175.03C591.375 176.02 590.037 177.432 589.083 179.265C588.13 181.062 587.653 183.115 587.653 185.425C587.653 185.828 587.69 186.397 587.763 187.13L609.653 182.84C609.397 181.117 608.792 179.54 607.838 178.11C606.885 176.68 605.638 175.562 604.098 174.755C602.558 173.912 600.835 173.49 598.928 173.49ZM620.416 161.5H623.606L623.056 188.945H620.966L620.416 161.5ZM622.011 200.22C621.387 200.22 620.856 200 620.416 199.56C619.976 199.12 619.756 198.588 619.756 197.965C619.756 197.342 619.976 196.81 620.416 196.37C620.856 195.93 621.387 195.71 622.011 195.71C622.671 195.71 623.221 195.93 623.661 196.37C624.101 196.81 624.321 197.342 624.321 197.965C624.321 198.588 624.101 199.12 623.661 199.56C623.221 200 622.671 200.22 622.011 200.22Z" fill="#E02914"/>
<path d="M160.474 43.16C160.474 30 153.334 23 140.174 23H106.574C105.174 23 104.334 23.7 104.334 25.24V132.76C104.334 134.16 105.174 135 106.574 135H140.174C153.334 135 160.474 128 160.474 114.84V89.08C160.474 83.9 156.694 79.98 151.654 79.14V78.86C156.694 78.02 160.474 74.1 160.474 68.92V43.16ZM141.854 64.3C141.854 67.8 139.894 69.76 136.254 69.76H123.514V41.48H136.254C140.034 41.48 141.854 43.44 141.854 47.08V64.3ZM141.854 110.92C141.854 114.7 139.894 116.52 136.254 116.52H123.514V88.24H136.254C140.034 88.24 141.854 90.2 141.854 93.84V110.92ZM230.471 57.16C230.471 44 223.471 37 210.311 37H176.711C175.311 37 174.471 37.84 174.471 39.24V132.76C174.471 134.16 175.311 135 176.711 135H190.431C191.831 135 192.671 134.16 192.671 132.76V105.46H205.131L211.851 133.04C212.131 134.3 212.831 135 214.231 135H227.951C229.491 135 230.331 134.16 229.911 132.48L222.631 102.38C227.811 99.16 230.471 93.42 230.471 85.3V57.16ZM192.671 87.4V55.06H206.671C210.311 55.06 212.271 57.02 212.271 60.66V81.8C212.271 85.44 210.311 87.4 206.671 87.4H192.671ZM307.816 135C309.496 135 310.196 134.16 309.776 132.62L286.536 38.96C286.256 37.56 285.416 37 284.156 37H264.696C263.436 37 262.596 37.56 262.316 38.96L239.076 132.62C238.656 134.16 239.356 135 240.896 135H254.616C255.876 135 256.576 134.3 256.856 133.04L261.196 115.4H287.516L291.996 133.04C292.276 134.3 292.976 135 294.236 135H307.816ZM283.176 99.16H265.536L274.356 61.08L283.176 99.16ZM365.55 37C364.01 37 363.31 37.84 363.31 39.24V92.3L336.99 38.82C336.43 37.56 335.73 37 334.47 37H323.41C322.01 37 321.17 37.84 321.17 39.24V132.76C321.17 134.16 322.01 135 323.41 135H336.57C338.11 135 338.81 134.16 338.81 132.76V79.7L365.13 133.18C365.69 134.44 366.39 135 367.65 135H378.71C380.11 135 380.95 134.16 380.95 132.76V39.24C380.95 37.84 380.11 37 378.71 37H365.55ZM394.998 132.76C394.998 134.3 395.698 135 397.238 135H430.838C443.998 135 450.998 128 450.998 114.84V43.3C450.998 30.14 443.998 23 430.838 23H397.238C395.698 23 394.998 23.84 394.998 25.24V132.76ZM414.038 116.52V41.48H426.918C430.558 41.48 432.518 43.44 432.518 47.22V110.92C432.518 114.7 430.558 116.52 426.918 116.52H414.038ZM525.473 135C527.153 135 527.853 134.16 527.433 132.62L504.193 38.96C503.913 37.56 503.073 37 501.813 37H482.353C481.093 37 480.253 37.56 479.973 38.96L456.733 132.62C456.313 134.16 457.013 135 458.553 135H472.273C473.533 135 474.233 134.3 474.513 133.04L478.853 115.4H505.173L509.653 133.04C509.933 134.3 510.633 135 511.893 135H525.473ZM500.833 99.16H483.193L492.013 61.08L500.833 99.16ZM583.206 37C581.666 37 580.966 37.84 580.966 39.24V92.3L554.646 38.82C554.086 37.56 553.386 37 552.126 37H541.066C539.666 37 538.826 37.84 538.826 39.24V132.76C538.826 134.16 539.666 135 541.066 135H554.226C555.766 135 556.466 134.16 556.466 132.76V79.7L582.786 133.18C583.346 134.44 584.046 135 585.306 135H596.366C597.766 135 598.606 134.16 598.606 132.76V39.24C598.606 37.84 597.766 37 596.366 37H583.206ZM614.894 135C613.354 135 612.654 134.16 612.654 132.76V39.24C612.654 37.84 613.354 37 614.894 37H629.454C630.854 37 631.694 37.84 631.694 39.24V132.76C631.694 134.16 630.854 135 629.454 135H614.894ZM704.26 23C702.58 23 701.6 23.84 701.18 25.52L685.64 95.24L670.1 25.52C669.68 23.84 668.7 23 667.02 23H648.54C646.72 23 645.74 23.98 645.74 25.8V132.2C645.74 134.02 646.72 135 648.54 135H661.42C663.24 135 664.22 134.02 664.22 132.2V69.2H665.2L679.06 132.48C679.48 134.16 680.46 135 682.14 135H689C690.68 135 691.66 134.16 692.08 132.48L705.94 69.2H706.92V132.2C706.92 134.02 707.9 135 709.72 135H722.74C724.56 135 725.54 134.02 725.54 132.2V25.8C725.54 23.98 724.56 23 722.74 23H704.26ZM795.669 43.16C795.669 30 788.529 23 775.369 23H741.769C740.369 23 739.529 23.7 739.529 25.24V132.76C739.529 134.16 740.369 135 741.769 135H775.369C788.529 135 795.669 128 795.669 114.84V89.08C795.669 83.9 791.889 79.98 786.849 79.14V78.86C791.889 78.02 795.669 74.1 795.669 68.92V43.16ZM777.049 64.3C777.049 67.8 775.089 69.76 771.449 69.76H758.709V41.48H771.449C775.229 41.48 777.049 43.44 777.049 47.08V64.3ZM777.049 110.92C777.049 114.7 775.089 116.52 771.449 116.52H758.709V88.24H771.449C775.229 88.24 777.049 90.2 777.049 93.84V110.92Z" fill="#F9F9F3"/>
</svg>
